<svg width="1238" height="820" viewBox="0 0 1238 820" fill="none" xmlns="http://www.w3.org/2000/svg">
<g filter="url(#filter0_d)">
<path d="M59 53H1179V755H59V53Z" fill="#FFE0E2"/>
</g>
<path fill-rule="evenodd" clip-rule="evenodd" d="M745.796 77.8493L741.688 75L732 88.9696L736.109 91.8189L745.796 77.8493ZM214.121 92L219.082 92.6239L216.961 109.491L212 108.867L214.121 92ZM132.722 114L135.222 118.33L120.5 126.83L118 122.5L132.722 114ZM334.688 209L338.796 211.849L329.109 225.819L325 222.97L334.688 209ZM281.082 154.624L276.121 154L274 170.867L278.961 171.491L281.082 154.624ZM106.563 169L103 172.508L114.928 184.621L118.491 181.113L106.563 169ZM906.722 221L909.222 225.33L894.5 233.83L892 229.5L906.722 221ZM1116.22 112.33L1113.72 108L1099 116.5L1101.5 120.83L1116.22 112.33ZM1058.12 273L1063.08 273.624L1060.96 290.491L1056 289.867L1058.12 273ZM1110.08 485.624L1105.12 485L1103 501.867L1107.96 502.491L1110.08 485.624ZM924 352.508L927.563 349L939.491 361.113L935.928 364.621L924 352.508ZM778.563 365L775 368.508L786.928 380.621L790.491 377.113L778.563 365ZM278.397 282.537L276 278.149L290.92 270L293.316 274.388L278.397 282.537ZM196.384 291.228L201.329 291.969L203.849 275.157L198.905 274.416L196.384 291.228ZM107.945 256.553L103 255.812L105.52 239L110.465 239.741L107.945 256.553ZM566 448.812L570.945 449.553L573.465 432.741L568.52 432L566 448.812ZM627.308 616.004L624.736 620.292L610.157 611.549L612.729 607.261L627.308 616.004ZM377.638 275.815L381.282 272.392L369.645 260L366 263.423L377.638 275.815ZM481.303 104L485.412 106.849L475.724 120.819L471.616 117.97L481.303 104ZM466.397 275.537L464 271.149L478.92 263L481.316 267.388L466.397 275.537ZM332 114.149L334.397 118.537L349.316 110.388L346.92 106L332 114.149ZM391.945 172.969L387 172.228L389.52 155.416L394.465 156.157L391.945 172.969ZM562.638 127.815L566.282 124.392L554.645 112L551 115.423L562.638 127.815ZM205.093 493.542L200 492.823L202.516 476L207.609 476.719L205.093 493.542ZM132.228 419.308L128.007 416.449L118 430.394L122.221 433.254L132.228 419.308ZM243 339.541L247.896 338L253.287 354.173L248.391 355.713L243 339.541ZM619.896 356L615 357.541L620.391 373.713L625.287 372.173L619.896 356ZM976.397 126.537L974 122.149L988.92 114L991.316 118.388L976.397 126.537ZM1033.15 196.299L1038.14 195.961L1036.99 179L1032 179.338L1033.15 196.299ZM885.329 124.969L880.384 124.228L882.905 107.416L887.849 108.157L885.329 124.969ZM800.938 226.101L803.374 221.734L788.527 213.453L786.091 217.819L800.938 226.101ZM1064.94 598.553L1060 597.812L1062.52 581L1067.46 581.741L1064.94 598.553ZM962.896 263L958 264.541L963.391 280.713L968.287 279.173L962.896 263ZM853 410.541L857.896 409L863.287 425.173L858.391 426.713L853 410.541ZM357.788 539L356 543.688L372.408 549.594L374.195 544.905L357.788 539ZM357.225 372.696L360.916 369.296L372.97 381.897L369.28 385.297L357.225 372.696ZM385.1 385.632L383.444 380.895L367.095 386.962L368.752 391.698L385.1 385.632Z" fill="#FFEFF0"/>
<path fill-rule="evenodd" clip-rule="evenodd" d="M820.615 132.961C821.747 127.894 827.332 125.231 831.982 127.54L852.44 137.703C855.817 139.38 857.565 143.188 856.633 146.843L851.669 166.323C850.537 170.765 845.912 173.349 841.536 171.985L820.859 165.539C816.885 164.3 814.525 160.22 815.432 156.157L820.615 132.961ZM147.827 198.02C145.881 202.84 148.976 208.206 154.121 208.935L207.028 216.44C211.223 217.035 215.155 214.256 215.993 210.102L223.865 171.102C224.759 166.671 221.807 162.379 217.349 161.63L172.338 154.065C168.636 153.443 164.999 155.478 163.594 158.96L147.827 198.02ZM1036.99 327.968C1035.16 332.828 1038.38 338.118 1043.53 338.733L1107.97 346.419C1112.09 346.91 1115.89 344.179 1116.75 340.124L1129.49 279.644C1130.44 275.142 1127.4 270.77 1122.85 270.084L1068.65 261.916C1064.91 261.354 1061.3 263.475 1059.97 267.005L1036.99 327.968ZM414.628 455.366C413.679 460.47 408.193 463.332 403.464 461.19L338.073 431.583C334.637 430.028 332.755 426.285 333.554 422.599L347.007 360.592C347.979 356.112 352.509 353.363 356.931 354.57L422.582 372.48C426.598 373.576 429.103 377.568 428.341 381.661L414.628 455.366ZM173.682 728.255C175.778 733.12 181.937 734.641 186.057 731.312L222.845 701.589C225.864 699.15 226.697 694.896 224.821 691.499L187.006 623.017C184.675 618.795 179.167 617.58 175.276 620.43L143.894 643.414C140.886 645.617 139.799 649.608 141.274 653.033L173.682 728.255ZM883.603 552.139C879.347 555.119 873.425 553.315 871.552 548.47L864.175 529.377C862.814 525.857 864.099 521.865 867.257 519.799L880.669 511.025C884.527 508.501 889.715 509.752 891.998 513.757L901.633 530.653C903.679 534.242 902.656 538.799 899.271 541.169L883.603 552.139ZM1103.03 725.347C1108.33 725.521 1112.32 720.598 1111.07 715.455L1099.62 668.575C1098.58 664.282 1094.25 661.652 1089.96 662.7L1071.06 667.313C1066.82 668.348 1064.19 672.59 1065.16 676.847L1074.55 718.427C1075.35 721.979 1078.45 724.541 1082.09 724.661L1103.03 725.347ZM157.56 304.804C157.453 299.613 152.506 295.898 147.491 297.242L124.533 303.395C120.512 304.473 117.989 308.454 118.732 312.551L122.599 333.861C123.417 338.371 127.85 341.273 132.311 340.218L151.874 335.593C155.544 334.725 158.11 331.413 158.032 327.643L157.56 304.804Z" fill="#FFE6E7"/>
<g clip-path="url(#clip0)">
<path d="M117.909 336.361L130.695 382.209L160.843 373.802L148.057 327.954L117.909 336.361Z" fill="#362E2D"/>
<path d="M115.2 339.5L117.8 336.6L146.5 331.7L159.3 373L148.5 397.3L128.3 384.1L115.2 339.5Z" fill="white"/>
<path d="M136.8 357.2L149.6 399.2L127.9 385.3L115.2 339.5L136.8 357.2Z" fill="#4E3734"/>
<path d="M117.8 337.4L144.6 336.4L157.6 376.8L159.3 373L146.5 331.7L118.6 336.4L117.8 337.4Z" fill="#F7F7F7"/>
<path d="M237.9 404.3C254.745 404.3 268.4 390.645 268.4 373.8C268.4 356.955 254.745 343.3 237.9 343.3C221.055 343.3 207.4 356.955 207.4 373.8C207.4 390.645 221.055 404.3 237.9 404.3Z" fill="#8C503E"/>
<path d="M377.2 662.5C377.2 662.5 381 672 382.7 677.2C384.4 682.4 387.4 688.9 389.9 689.1C392.4 689.3 392.9 679.6 391.3 664.8C389.7 650.1 390.9 648 382.8 648.1C379.2 648.1 377.2 647.8 377.2 647.8V662.5Z" fill="#FF6ED9"/>
<path d="M153.2 713.9C153.2 713.9 142.3 715.6 136.6 717.9C130.9 720.2 126.5 722.5 126.5 725.3C126.5 727.5 136.9 726.8 153.1 726.8C169.7 726.9 174.4 727.3 171.5 718.9C170.5 716 167.9 713.6 167.9 713.6L153.2 713.9Z" fill="#FF6ED9"/>
<path d="M268.4 373.8C268.4 356.9 254.7 343.3 237.9 343.3C233.3 343.3 228.9 344.3 225 346.2L224.2 346.6C223.2 348.5 222.6 350.6 222.6 352.9C222.6 360.2 228.5 366.1 235.8 366.1C236.4 366.1 237 366 237.7 366C236.9 367 236.5 368.3 236.5 369.7C236.5 372.8 238.9 375.4 241.9 375.8C241.6 376.6 241.5 377.4 241.5 378.2C241.5 382 244.6 385.1 248.4 385.1H248.5C249.1 387.9 251.5 389.9 254.5 389.9C255.3 389.9 256.1 389.7 256.8 389.5C257.2 391.6 259.1 393.2 261.3 393.2L263 391.6C266.3 386.6 268.4 380.4 268.4 373.8Z" fill="#4E3734"/>
<path d="M146.8 409.7C146.8 409.7 147.4 399.8 144.5 394.5C141.6 389.2 135.4 386.3 132.5 381.7C129.7 377.1 129.8 370.8 127.1 370.2C124.4 369.6 119.9 380.4 122.8 385.6C125.6 390.8 129.2 394.2 131 399.5C132.8 404.8 135.6 409.5 137.3 411C139.1 412.5 146.8 409.7 146.8 409.7Z" fill="#8C503E"/>
<path d="M317.3 528.6C317.3 528.6 320.8 537.9 325.7 541.5C330.5 545.1 337.4 545.2 341.9 548.3C346.4 551.3 348.8 557.1 351.5 556.5C354.2 555.9 353.8 544.2 349.1 540.7C344.4 537.1 339.7 535.5 335.9 531.4C332.1 527.3 327.6 524.2 325.4 523.5C323.2 522.8 317.3 528.6 317.3 528.6Z" fill="#8C503E"/>
<path d="M201.2 549.1C201.2 549.1 181.7 589.8 173.2 621.4C162 663.2 153.2 714 153.2 714L167.8 713.8C167.8 713.8 185.5 693.2 211.1 651.5C236.9 609.4 248.6 582.7 248.6 582.7C248.6 582.7 265.9 645.1 277.2 654.9C293 668.6 329.9 668 341.6 667.2C353.3 666.4 377.1 662.6 377.1 662.6V647.9C377.1 647.9 347.1 643.1 335.1 638.1C323.1 633.1 308.8 629 308.8 629C308.8 629 304 595.6 300.5 577.9C297 560.2 292.2 539.9 292.2 539.9L201.2 549.1Z" fill="#5441AF"/>
<path d="M248.7 582.6L254.5 570.4C254.5 570.4 257.8 576.9 257.4 585.2C257.1 593.5 255.3 604.6 255.3 604.6L248.7 582.6Z" fill="#4F3D9D"/>
<path d="M111 423.9C111 423.9 116.2 424.1 124.7 429.6C143.7 441.9 149.9 468.5 172.9 472.4C192.2 475.7 204.7 469.9 204.7 469.9C204.7 469.9 197.2 491.4 195.2 501.2C193.2 511 193.4 528.7 185.4 536.5C177.4 544.3 173.7 548 173.7 548C173.7 548 208.7 554.3 237 549C265.3 543.7 280.7 541.8 285.8 542C291 542.2 299 543.2 299 543.2C299 543.2 295.8 536 292.8 528.7C289.8 521.4 289.1 514 289.1 514C289.1 514 308.1 529.2 311.1 534.2C314.1 539.2 314.6 547.5 314.6 547.5C314.6 547.5 318.9 538.2 321.9 535C324.9 531.8 327.2 528 330.9 525.2C334.6 522.4 336.7 520.2 336.7 520.2C336.7 520.2 332.7 520.5 329.2 517.4C325.7 514.2 306 490.1 302 486.2C298 482.4 283 466 283 466C283 466 281.2 413.8 250.3 414.8C230.8 415.4 219.5 420.3 207.1 427C194.8 433.7 183.9 441 183.9 441C183.9 441 162.9 428.3 155.6 413.1C153.1 408 152 404.2 152 404.2C152 404.2 144.3 405.6 133.7 410.8C122.4 416.5 111 423.9 111 423.9Z" fill="#FF353A"/>
<path d="M204.7 469.9C204.7 469.9 215.6 469.6 225.9 466.5C236.2 463.3 247.3 458.4 250 452.1C252.7 445.8 253.9 439.4 253.9 439.4C253.9 439.4 255.8 449.9 251.4 459.8C247 469.7 232.8 474.5 227.5 476.4C222.2 478.3 200.8 481.7 200.8 481.7L204.7 469.9Z" fill="#E2303D"/>
<path d="M284.2 477.2C284.2 477.2 285.8 494.8 286.5 500C287.2 505.2 289.3 514.2 289.3 514.2L294.5 518.4C294.5 518.4 290.8 507.3 289.4 499.4C287.8 491.5 284.2 477.2 284.2 477.2Z" fill="#E2303D"/>
<path d="M245.4 542.2C241.9 542.2 239.1 539.4 239.1 535.9C239.1 532.4 241.9 529.6 245.4 529.6C248.9 529.6 251.7 532.4 251.7 535.9C251.7 539.4 248.9 542.2 245.4 542.2ZM245.4 530.6C242.5 530.6 240.1 533 240.1 535.9C240.1 538.8 242.5 541.2 245.4 541.2C248.3 541.2 250.7 538.8 250.7 535.9C250.7 533 248.4 530.6 245.4 530.6Z" fill="#5441AF"/>
<path d="M273 441.3C275 441.3 276.8 440.3 278 438.8C277.9 438.4 277.7 438 277.6 437.6C276.7 439.2 275 440.2 273.1 440.2C270.2 440.2 267.8 437.8 267.8 434.9C267.8 432 270.2 429.6 273.1 429.6C273.4 429.6 273.7 429.6 274 429.7C273.8 429.3 273.6 429 273.4 428.6C273.3 428.6 273.2 428.6 273.1 428.6C269.6 428.6 266.8 431.4 266.8 434.9C266.8 438.4 269.5 441.3 273 441.3Z" fill="#5441AF"/>
<path d="M190.6 545C195.6 545 199.7 540.9 199.7 535.9C199.7 530.9 195.7 526.9 190.7 526.8C190.6 527.1 190.5 527.5 190.4 527.8C190.5 527.8 190.5 527.8 190.6 527.8C195.1 527.8 198.7 531.4 198.7 535.9C198.7 540.4 195.1 544 190.6 544C187.2 544 184.2 541.8 183 538.8C182.7 539.1 182.5 539.3 182.2 539.6C183.7 542.8 186.9 545 190.6 545Z" fill="#5441AF"/>
<path d="M215 445.9C211 445.9 207.8 442.7 207.8 438.7C207.8 434.7 211 431.5 215 431.5C219 431.5 222.2 434.7 222.2 438.7C222.2 442.7 218.9 445.9 215 445.9ZM215 432.6C211.6 432.6 208.8 435.4 208.8 438.8C208.8 442.2 211.6 445 215 445C218.4 445 221.2 442.2 221.2 438.8C221.2 435.4 218.4 432.6 215 432.6Z" fill="#5441AF"/>
<path d="M157.8 432.6C155.3 432.6 153.2 430.5 153.2 428C153.2 425.5 155.3 423.4 157.8 423.4C160.3 423.4 162.4 425.5 162.4 428C162.4 430.5 160.3 432.6 157.8 432.6ZM157.8 424.4C155.8 424.4 154.2 426 154.2 428C154.2 430 155.8 431.6 157.8 431.6C159.8 431.6 161.4 430 161.4 428C161.4 426 159.8 424.4 157.8 424.4Z" fill="#5441AF"/>
<path d="M305.9 490.4C305.3 491.5 304.1 492.2 302.8 492.2C300.8 492.2 299.2 490.6 299.2 488.6C299.2 487.2 300 486 301.2 485.4C301 485.2 300.7 484.9 300.5 484.7C299.1 485.5 298.2 487 298.2 488.7C298.2 491.2 300.3 493.3 302.8 493.3C304.4 493.3 305.8 492.5 306.6 491.3C306.4 490.9 306.2 490.6 305.9 490.4Z" fill="#5441AF"/>
<path d="M257.4 479.3C254.9 479.3 252.8 477.2 252.8 474.7C252.8 472.2 254.9 470.1 257.4 470.1C259.9 470.1 262 472.2 262 474.7C262 477.2 260 479.3 257.4 479.3ZM257.4 471.2C255.4 471.2 253.8 472.8 253.8 474.8C253.8 476.8 255.4 478.4 257.4 478.4C259.4 478.4 261 476.8 261 474.8C261 472.8 259.4 471.2 257.4 471.2Z" fill="#5441AF"/>
<path d="M125.2 425.4C123.6 425.4 122.2 426.4 121.5 427.7C121.8 427.9 122.1 428 122.4 428.2C122.9 427.1 124 426.4 125.2 426.4C126.9 426.4 128.3 427.8 128.3 429.5C128.3 430.3 128 431.1 127.4 431.6C127.7 431.8 127.9 432 128.2 432.2C128.9 431.5 129.3 430.5 129.3 429.5C129.3 427.2 127.5 425.4 125.2 425.4Z" fill="#5441AF"/>
<path d="M209.2 501.3C206.2 501.3 203.8 498.9 203.8 495.9C203.8 492.9 206.2 490.5 209.2 490.5C212.2 490.5 214.6 492.9 214.6 495.9C214.6 498.9 212.2 501.3 209.2 501.3ZM209.2 491.4C206.8 491.4 204.8 493.4 204.8 495.8C204.8 498.2 206.8 500.2 209.2 500.2C211.6 500.2 213.6 498.2 213.6 495.8C213.6 493.4 211.7 491.4 209.2 491.4Z" fill="#5441AF"/>
<path d="M307.9 522.5C305.7 522.5 303.8 523.8 302.9 525.7C303.2 525.9 303.4 526.2 303.7 526.4C304.3 524.7 305.9 523.4 307.9 523.4C310.3 523.4 312.3 525.4 312.3 527.8C312.3 529.7 311.1 531.3 309.4 531.9C309.7 532.2 309.9 532.4 310.1 532.7C312 531.8 313.3 530 313.3 527.8C313.3 524.9 310.9 522.5 307.9 522.5Z" fill="#5441AF"/>
<path d="M192.5 464.2C190.2 464.2 188.4 462.4 188.4 460.1C188.4 457.8 190.2 456 192.5 456C194.8 456 196.6 457.8 196.6 460.1C196.6 462.4 194.8 464.2 192.5 464.2ZM192.5 457C190.8 457 189.4 458.4 189.4 460.1C189.4 461.8 190.8 463.2 192.5 463.2C194.2 463.2 195.6 461.8 195.6 460.1C195.6 458.4 194.2 457 192.5 457Z" fill="#5441AF"/>
<path d="M273 514.3C269.8 514.3 267.3 511.7 267.3 508.6C267.3 505.5 269.9 502.9 273 502.9C276.1 502.9 278.7 505.5 278.7 508.6C278.7 511.7 276.2 514.3 273 514.3ZM273 503.8C270.4 503.8 268.3 505.9 268.3 508.5C268.3 511.1 270.4 513.2 273 513.2C275.6 513.2 277.7 511.1 277.7 508.5C277.7 505.9 275.6 503.8 273 503.8Z" fill="#5441AF"/>
<path d="M232.9 511.6C231.2 511.6 229.9 510.2 229.9 508.6C229.9 506.9 231.3 505.6 232.9 505.6C234.5 505.6 235.9 507 235.9 508.6C235.9 510.2 234.6 511.6 232.9 511.6ZM232.9 506.5C231.8 506.5 230.9 507.4 230.9 508.5C230.9 509.6 231.8 510.5 232.9 510.5C234 510.5 234.9 509.6 234.9 508.5C234.9 507.4 234 506.5 232.9 506.5Z" fill="#5441AF"/>
<path d="M160.3 467.3C161.1 466.3 161.6 465 161.6 463.5C161.6 460 158.8 457.2 155.3 457.2C153.7 457.2 152.2 457.8 151.1 458.8C151.3 459.1 151.6 459.3 151.8 459.6C152.7 458.8 154 458.2 155.3 458.2C158.2 458.2 160.6 460.6 160.6 463.5C160.6 464.7 160.2 465.8 159.5 466.7C159.7 466.9 160 467.1 160.3 467.3Z" fill="#5441AF"/>
<path d="M137.3 717.3C137.3 717.3 138.4 717.9 139.1 719C139.8 720.1 139.6 721.8 139.6 721.8" stroke="#5441AF" stroke-miterlimit="10"/>
<path d="M141 715.8C141 715.8 142.1 716.4 142.8 717.5C143.5 718.6 143.3 720.3 143.3 720.3" stroke="#5441AF" stroke-miterlimit="10"/>
<path d="M144.6 714.9C144.6 714.9 145.7 715.5 146.4 716.6C147.1 717.7 146.9 719.4 146.9 719.4" stroke="#5441AF" stroke-miterlimit="10"/>
<path d="M147.9 713.8C147.9 713.8 149 714.4 149.7 715.5C150.4 716.6 150.2 718.3 150.2 718.3" stroke="#5441AF" stroke-miterlimit="10"/>
<path d="M381.9 676.5C381.9 676.5 382.4 675.3 383.5 674.6C384.6 673.9 386.3 674 386.3 674" stroke="#5441AF" stroke-miterlimit="10"/>
<path d="M380.2 672.9C380.2 672.9 380.7 671.7 381.8 671C382.9 670.3 384.6 670.4 384.6 670.4" stroke="#5441AF" stroke-miterlimit="10"/>
<path d="M379.2 669.3C379.2 669.3 379.7 668.1 380.8 667.4C381.9 666.7 383.6 666.8 383.6 666.8" stroke="#5441AF" stroke-miterlimit="10"/>
<path d="M377.9 666.1C377.9 666.1 378.4 664.9 379.5 664.2C380.6 663.5 382.3 663.6 382.3 663.6" stroke="#5441AF" stroke-miterlimit="10"/>
<path d="M634.1 406.3L665.9 444.5L651.1 466.3L620.5 430.2L634.1 406.3Z" fill="#4F3D9D"/>
<path d="M620.5 432.7L620.6 430.4L634.2 407.8L664.3 444.5L654 459.3L643.2 455L620.5 432.7Z" fill="white"/>
<path d="M673.5 474.2L675 472.8L647.8 439.8L620.5 432V432.7L628.2 442.6L673.5 474.2Z" fill="#F7F7F7"/>
<path d="M647.2 440.8L675 474.9L649.7 470.2L620.5 432.7L647.2 440.8Z" fill="#5441AF"/>
<path d="M620.5 430.2V432.7L621.1 432.9L621 429.2L620.5 430.2Z" fill="#362E2D"/>
<path d="M711.6 567.2C711.6 567.2 690.8 585.2 682.8 592.7C674.8 600.2 670.8 603.2 668.8 608.7C666.8 614.2 662.3 653.7 661.5 666C660.7 678.3 660 704.8 660 704.8H673.8C673.8 704.8 678.8 687.3 683.8 677C688.8 666.7 696.1 655 699.3 646C702.5 637 704.1 624.7 704.1 624.7C704.1 624.7 716.9 623.5 731.9 616C746.9 608.5 753.2 604.7 753.2 604.7C753.2 604.7 762.5 623.2 770.5 638.7C778.5 654.2 781.5 659 788.5 665.7C795.5 672.4 822.7 684.1 835.2 687.9C852.5 693.1 867.6 695.1 867.6 695.1L870.1 681.8C870.1 681.8 850.1 671.7 839.2 664.2C829.2 657.3 820.9 649.5 818.4 643C815.9 636.5 812.3 599.4 809.1 582.7C805.9 566 799.6 558.9 799.6 558.9L711.6 567.2Z" fill="#FF6ED9"/>
<path d="M753.1 604.7C753.1 604.7 757.2 602.8 760.7 600.6C764.2 598.4 767.1 596 767.1 596C767.1 596 766.3 601.5 763.8 606.3C761.3 611.1 758.3 615.1 758.3 615.1L753.1 604.7Z" fill="#FF5ED2"/>
<path d="M716.4 610.8L710.4 606.1L715.1 600.1L721.1 604.8L716.4 610.8ZM711.8 606L716.2 609.4L719.6 605L715.2 601.6L711.8 606Z" fill="#5441AF"/>
<path d="M680.2 613.9L675.5 612.7L676.7 608L681.4 609.2L680.2 613.9ZM676.7 612L679.5 612.7L680.2 609.9L677.4 609.2L676.7 612Z" fill="#5441AF"/>
<path d="M749.1 590.5L744.4 589.3L745.6 584.6L750.3 585.8L749.1 590.5ZM745.6 588.6L748.4 589.3L749.1 586.5L746.3 585.8L745.6 588.6Z" fill="#5441AF"/>
<path d="M694.8 634.5L688.4 628.7L694.2 622.3L700.6 628.1L694.8 634.5ZM689.8 628.7L694.7 633.2L699.2 628.3L694.3 623.8L689.8 628.7Z" fill="#5441AF"/>
<path d="M780.4 591.6L774.7 586.6L779.7 580.9L785.4 585.9L780.4 591.6ZM776.1 586.6L780.3 590.3L784 586.1L779.8 582.4L776.1 586.6Z" fill="#5441AF"/>
<path d="M673.2 694.6L668.5 693.2L669.9 688.5L674.6 689.9L673.2 694.6ZM669.8 692.5L672.5 693.3L673.3 690.6L670.6 689.8L669.8 692.5Z" fill="#5441AF"/>
<path d="M666.9 676L665.4 668.9L672.5 667.4L674 674.5L666.9 676ZM666.6 669.6L667.7 674.8L672.9 673.7L671.8 668.5L666.6 669.6Z" fill="#5441AF"/>
<path d="M664.2 639.4C664.2 639.8 664.1 640.3 664.1 640.7L665.4 639.9L667.9 643.7L664.1 646.2L663.6 645.5C663.5 646 663.5 646.6 663.4 647.1L663.7 647.6L669.2 644.1L665.7 638.6L664.2 639.4Z" fill="#5441AF"/>
<path d="M702.2 580.7L697.7 583.4L696.1 580.8C695.8 581 695.6 581.2 695.3 581.5L697.3 584.8L703.5 581.1L700.8 576.7C700.5 576.9 700.3 577.1 700 577.4L702.2 580.7Z" fill="#5441AF"/>
<path d="M792.5 641.8L787.7 635.9L793.6 631.1L798.4 637L792.5 641.8ZM789.2 636.1L792.7 640.4L797 636.9L793.5 632.6L789.2 636.1Z" fill="#5441AF"/>
<path d="M795.3 664.3L791 662.1L793.2 657.8L797.5 660L795.3 664.3ZM792.3 661.7L794.9 663L796.2 660.4L793.6 659.1L792.3 661.7Z" fill="#5441AF"/>
<path d="M800 605.2L795.7 603L797.9 598.7L802.2 600.9L800 605.2ZM797 602.5L799.6 603.8L800.9 601.2L798.3 599.9L797 602.5Z" fill="#5441AF"/>
<path d="M820.8 647.7C820.6 647.4 820.4 647.2 820.2 646.9L816.6 649.4L812.8 643.9L817.5 640.7C817.4 640.4 817.3 640 817.3 639.6L811.5 643.6L816.4 650.7L820.8 647.7Z" fill="#5441AF"/>
<path d="M857.6 685.2L850.3 685.1L850.4 677.8L857.7 677.9L857.6 685.2ZM851.3 684.1L856.6 684.2L856.7 678.9L851.4 678.8L851.3 684.1Z" fill="#5441AF"/>
<path d="M823 682.2L820.8 676L827 673.8L829.2 680L823 682.2ZM822.1 676.6L823.6 680.9L827.9 679.4L826.4 675.1L822.1 676.6Z" fill="#5441AF"/>
<path d="M764.3 626.8L773.4 630.3L770.3 638.4C770.3 638.5 770.4 638.6 770.4 638.6C770.6 638.9 770.7 639.2 770.9 639.6L774.7 629.7L763.6 625.4C763.8 625.9 764 626.3 764.3 626.8Z" fill="#5441AF"/>
<path d="M683 658.9L688.5 666.5L689.8 665.5C690.2 664.8 690.5 664.2 690.9 663.5L688.7 665.1L684.4 659.1L690.4 654.8L693.4 658.9C693.6 658.6 693.7 658.2 693.9 657.9L690.7 653.4L683 658.9Z" fill="#5441AF"/>
<path d="M754.8 430.4C771.645 430.4 785.3 416.745 785.3 399.9C785.3 383.055 771.645 369.4 754.8 369.4C737.955 369.4 724.3 383.055 724.3 399.9C724.3 416.745 737.955 430.4 754.8 430.4Z" fill="#DF8E89"/>
<path d="M660.1 704.7C660.1 704.7 660.4 708.5 658.8 709.3C655.7 711.1 650.6 714 647.7 715.9C643.4 718.7 638.1 723.6 638.6 726.1C639.1 728.5 648.2 726.3 661.4 721.2C674.6 716.2 677.1 717.6 674.8 709.8C673.8 706.3 673.5 704.4 673.5 704.4L660.1 704.7Z" fill="#5441AF"/>
<path d="M867.4 695C867.4 695 871.1 695.5 871.7 697.2C872.8 700.6 874.7 706.2 876 709.4C877.9 714.2 881.7 720.3 884.2 720.3C886.7 720.3 886.3 710.9 884 697C881.7 683.1 883.6 680.9 875.5 681.6C871.9 681.9 870 681.8 870 681.8L867.4 695Z" fill="#5441AF"/>
<path d="M662.9 476C662.9 476 660.6 466.4 656.2 462.2C651.9 458 645.1 457 641 453.5C636.9 450 635.2 443.9 632.5 444.1C629.8 444.3 628.7 456 632.9 460.1C637.1 464.2 641.6 466.4 644.9 471C648.2 475.6 652.3 479.2 654.3 480.1C656.3 481 662.9 476 662.9 476Z" fill="#DF8E89"/>
<path d="M814.7 371.1C814.7 371.1 814.5 364.3 817.4 359C820.3 353.7 828.5 350.5 831.3 345.9C834.1 341.3 838.7 336.7 841.4 336.1C844.1 335.5 843.9 343.8 841.1 349C838.3 354.2 832.2 355.5 830.4 360.9C828.6 366.3 825.8 370.9 824.2 372.4C822.5 373.8 814.7 371.1 814.7 371.1Z" fill="#DF8E89"/>
<path d="M733.2 365.7C733.2 365.7 731.2 378.2 742.3 385C753.4 391.8 761.2 388.4 761.2 388.4C761.2 388.4 758.9 400.5 766.1 410C773.3 419.5 776.5 421.4 776.5 421.4C776.5 421.4 794.4 408.3 790.4 394.2C788.1 386.2 782.7 384.3 782.7 384.3C782.7 384.3 783 376.4 774.7 370.3C766.4 364.2 750.4 369.2 743.7 368.8C737 368.4 733.2 365.7 733.2 365.7Z" fill="#FF353A"/>
<path d="M653.1 482.2L662.6 472.2L669.6 479.5C669.6 479.5 679.4 481.3 684.2 482.9C689 484.5 693.1 487.2 693.1 487.2C693.1 487.2 716 466.3 728.2 460.2C740.4 454 759.4 450.2 774.2 442.9C789 435.6 802.2 421.6 802.2 421.6C802.2 421.6 807.2 405.8 809 399.4C810.8 393.1 813 381.9 813 381.9V370.8H826V381C826 381 830 391.7 831.2 409.8C832.4 428 828 442.6 828 442.6C828 442.6 810.5 458.8 804.3 464.9C798.1 471.1 790 479.6 790 479.6C790 479.6 795.7 500.1 800.5 521.1C805.3 542.1 806.2 561.1 806.2 561.1C806.2 561.1 784.9 577.1 755.5 578.1C726.1 579.1 706.7 567.4 706.7 567.4C706.7 567.4 707 550.1 708.4 538.6C709.7 527.1 715.7 510.1 715.7 510.1C715.7 510.1 710.7 515.8 706 519.3C701.3 522.8 696 525.6 696 525.6C696 525.6 681.8 520.8 673.2 509.6C664.5 498.4 660.5 488.9 660.5 488.9L653.1 482.2Z" fill="#5441AF"/>
<path d="M715.7 510.2C715.7 510.2 721.3 493.9 724.5 484.9C727.7 475.9 729.2 472.5 729.2 472.5C729.2 472.5 721.4 479.9 717 492.2C712.6 504.5 709.3 516.8 709.3 516.8L715.7 510.2Z" fill="#4F3D9D"/>
<path d="M556.2 565.1L558.3 561.3L591.1 542.2L604 565.1L603.4 567.9L569.3 587.7L556.2 565.1Z" fill="#FF5ED2"/>
<path d="M590.429 545.358L556.222 565.108L569.222 587.624L603.429 567.874L590.429 545.358Z" fill="#FF6ED9"/>
<path d="M422.2 712.6C422.2 712.6 416.6 678.3 421.9 644.7C427.3 610.6 436.4 575 436.4 575C436.4 575 465.2 581 485.7 577.2C506.2 573.4 530.7 566.5 530.7 566.5C530.7 566.5 534.9 585.8 537.3 608.8C539.6 631.8 538.1 628.3 541.4 639.6C544.7 650.9 556.3 683.9 560.6 693.6C565 703.3 569.7 715.3 569.7 715.3H554.4C554.4 715.3 524.2 683.8 511.4 664.8C498.6 645.8 482.8 612.1 482.8 612.1C482.8 612.1 465.8 647.3 458.9 661.9C452 676.6 434.7 715.9 434.7 715.9L422.2 712.6Z" fill="#4E3734"/>
<path d="M484.9 447C501.027 447 514.1 433.927 514.1 417.8C514.1 401.673 501.027 388.6 484.9 388.6C468.773 388.6 455.7 401.673 455.7 417.8C455.7 433.927 468.773 447 484.9 447Z" fill="#DF8E89"/>
<path d="M509.9 433C512.6 428.6 514.2 423.3 514.2 417.8C514.2 401.6 501.1 388.6 485 388.6C479 388.6 473.5 390.4 468.9 393.5C468.9 393.5 465.7 404 473.5 410.9C481.4 417.9 489.9 413.9 489.9 413.9C489.9 413.9 486.6 424 495.2 430.3C502.5 435.7 509.9 433 509.9 433Z" fill="#4E3734"/>
<path d="M513.2 406C527.007 406 538.2 394.807 538.2 381C538.2 367.193 527.007 356 513.2 356C499.393 356 488.2 367.193 488.2 381C488.2 394.807 499.393 406 513.2 406Z" fill="#4E3734"/>
<path d="M486.1 595.6C486.1 595.6 485.1 602.4 484.3 606C483.5 609.6 482.7 612.2 482.7 612.2L491.3 629.7C491.3 629.7 491.7 615.2 490.1 607.1C488.5 599 486.1 595.6 486.1 595.6Z" fill="#362E2D"/>
<path d="M422.2 712.6C422.2 712.6 412.3 714.3 407.2 714.9C402.1 715.5 395.5 717.2 394.9 719.6C394.3 722 403.1 724.4 416.9 725.9C430.7 727.3 431.9 728.9 433.1 721.1C433.6 717.5 434.5 716.1 434.5 716.1L422.2 712.6Z" fill="#FF353A"/>
<path d="M556.9 715.5C556.9 715.5 547.8 717.1 543 719.1C538.2 721.1 534.5 723.2 534.5 725.7C534.5 727.6 543.2 727 556.8 727.1C570.7 727.2 574.6 727.5 572.2 720C571.4 717.4 569.1 715.3 569.1 715.3L556.9 715.5Z" fill="#FF353A"/>
<path d="M393.5 507.6C393.5 507.6 388.9 501.9 385.7 500.1C382.5 498.3 377 496.3 374.4 494.8C371.8 493.3 366.6 489.8 365.1 492.1C363.6 494.4 365.9 498.4 369.5 500.5C373.1 502.7 378.7 512.3 384 513C389.3 513.7 391.6 513.9 391.6 513.9L393.5 507.6Z" fill="#DF8E89"/>
<path d="M570.6 543.9C570.6 543.9 572.9 543 576.3 546.4C579.7 549.8 582.9 557.6 584.1 560.5C585.3 563.4 585.6 566.3 586.7 568.3C587.8 570.4 588.1 572.6 586.7 573.4C585.3 574.2 581.1 571 577.8 567.7C574.5 564.4 570.5 562.2 568.4 557.7C566.4 553.4 566.6 549.9 566.6 549.9L570.6 543.9Z" fill="#DF8E89"/>
<path d="M395 503C395 503 410.6 505.8 416.1 506.8C421.6 507.8 428.1 509 428.1 509C428.1 509 443.6 489.2 454.2 478.3C464.8 467.5 470.6 460 486.3 460C506.5 460 530.2 485.6 543.1 500.7C558 518.2 572.2 541.5 572.2 541.5L564.4 553.3C564.4 553.3 546.3 539.6 539.1 535.6C531.9 531.6 521.4 526.3 521.4 526.3C521.4 526.3 525.2 536.6 527.8 548.1C530.4 559.6 530.8 566.4 530.8 566.4C530.8 566.4 514.1 577.7 484.7 579.4C455.3 581.1 436.5 574.9 436.5 574.9C436.5 574.9 438.1 563.6 439.8 556.2C441.5 548.9 443.4 542.4 443.4 542.4C443.4 542.4 432.8 543.3 419.1 538.5C401.3 532.3 390.2 518.4 390.2 518.4L395 503Z" fill="#7B6DCF"/>
<path d="M443.3 542.5C443.3 542.5 440.8 551.5 440.1 554.7C439.4 557.9 438.6 561.9 438.6 561.9C438.6 561.9 470 531.2 476.8 523.7C483.6 516.2 495.7 502.9 495.4 491.2C495.1 479.5 492.8 476.9 492.8 476.9C492.8 476.9 494.2 484.4 491.5 492.1C487.7 502.8 471.9 516.7 464.4 523.7C458.2 529.6 443.3 542.5 443.3 542.5Z" fill="#6A5AC1"/>
<path d="M512.4 494.9C512.4 494.9 516.5 506.7 518.1 512.2C519.7 517.7 521.3 526.3 521.3 526.3L527.3 529.4C527.3 529.4 523 516.9 520.3 510C517.6 503.1 512.4 494.9 512.4 494.9Z" fill="#6A5AC1"/>
<path d="M515.8 534.3L515.3 538.6L518.5 541.4L514.4 542.2L512.7 546.1L510.6 542.4L506.3 542.1L509.2 538.9L508.3 534.8L512.1 536.5L515.8 534.3Z" fill="#FF6ED9"/>
<path d="M530.7 566.5C530.7 566.5 530.6 564.8 530.2 561.6L528.2 564L524.7 563.7L526.6 566.7L525.3 569.6C528.9 567.7 530.7 566.5 530.7 566.5Z" fill="#FF6ED9"/>
<path d="M447.4 488.6L449 491.4L450.3 488.4L453.5 487.7L451 485.6L451.4 482.4L449.4 483.6C448 485.1 446.6 486.7 445.2 488.4L447.4 488.6Z" fill="#FF6ED9"/>
<path d="M448 577.6L451.5 576.8L448.2 574.1L448.6 569.9L445 572.2L441.1 570.6L442.2 574.7L440.9 576.2C442.7 576.6 445.1 577.1 448 577.6Z" fill="#FF6ED9"/>
<path d="M498.4 563.7L500.8 564.4L502.7 562.7L502.8 565.2L505 566.5L502.7 567.4L502.1 569.8L500.5 567.9L498.1 568.1L499.4 566L498.4 563.7Z" fill="#FF6ED9"/>
<path d="M450.4 515.2L453.5 516L456 513.9L456.2 517.2L458.9 518.8L455.9 520L455.2 523.1L453.1 520.6L449.9 520.9L451.7 518.2L450.4 515.2Z" fill="#FF6ED9"/>
<path d="M560.1 523.1L559.8 523.3L556.7 522.5L558 525.5L556.3 528.2L559.5 527.9L561.5 530.4L562.2 527.3L562.8 527.1C562 525.8 561.1 524.5 560.1 523.1Z" fill="#FF6ED9"/>
<path d="M485.7 521.6L487.4 522L488.7 520.9L488.8 522.6L490.3 523.5L488.7 524.1L488.3 525.8L487.2 524.5L485.5 524.7L486.4 523.2L485.7 521.6Z" fill="#FF6ED9"/>
<path d="M427 532.9L428.4 531.9V530.2L429.8 531.2L431.4 530.6L430.9 532.3L432 533.7H430.2L429.2 535.1L428.7 533.4L427 532.9Z" fill="#FF6ED9"/>
<path d="M559.9 545.4L561.6 545.8L562.9 544.7L563 546.4L564.5 547.3L562.9 548L562.5 549.7L561.4 548.3L559.7 548.5L560.6 547L559.9 545.4Z" fill="#FF6ED9"/>
<path d="M485.7 467.9L487.4 468.4L488.7 467.2L488.8 469L490.3 469.9L488.7 470.5L488.3 472.2L487.2 470.9L485.5 471L486.4 469.5L485.7 467.9Z" fill="#FF6ED9"/>
<path d="M529.9 499.1L531.6 499.5L532.9 498.4L533 500.1L534.5 501L532.9 501.6L532.5 503.3L531.4 502L529.6 502.2L530.6 500.7L529.9 499.1Z" fill="#FF6ED9"/>
<path d="M405.6 515.7L408.5 516.5L410.8 514.5L411 517.5L413.6 519.1L410.8 520.2L410.1 523.2L408.2 520.8L405.1 521.1L406.8 518.5L405.6 515.7Z" fill="#FF6ED9"/>
<path d="M467.6 546.1L472.8 550.1L478.9 548L476.8 554.1L480.6 559.3L474.2 559.2L470.4 564.5L468.5 558.3L462.4 556.3L467.7 552.6L467.6 546.1Z" fill="#FF6ED9"/>
<path d="M470 482.4L474.1 485.5L479 483.9L477.3 488.7L480.4 492.9L475.2 492.8L472.2 496.9L470.7 492L465.9 490.5L470.1 487.5L470 482.4Z" fill="#FF6ED9"/>
<path d="M539.1 525.2L536.3 520.9L534.6 525.7L529.6 527L533.6 530.2L533.5 532.7C534.2 533.1 534.9 533.4 535.5 533.8L537.6 532.4L542.4 534.3L541 529.4L544.3 525.4L539.1 525.2Z" fill="#FF6ED9"/>
<path d="M506.9 482.4L512.6 479.3L518.4 482.2L517.2 475.8L518 475C515.5 472.9 512.9 470.9 510.3 469.1L509.7 470.5L503.3 471.6L508 476L506.9 482.4Z" fill="#FF6ED9"/>
<path d="M944.5 549.8C944.5 549.8 940.7 586.8 955.5 630.1C970.3 673.4 988.3 713.7 988.3 713.7H1003.6C1003.6 713.7 1006.1 675.6 1005.6 650.6C1005.1 625.6 1004.8 606.8 1004.8 606.8C1004.8 606.8 1016.7 618.4 1023.3 622.6C1029.9 626.8 1037.7 626.5 1046.8 624.7C1055.9 622.9 1100.7 611.8 1100.7 611.8L1099.7 599.3C1099.7 599.3 1080.2 593 1068.1 590.8C1056 588.6 1042.3 584.3 1042.3 584.3C1042.3 584.3 1036.4 567.6 1029.4 553.7C1022.4 539.8 1019.6 535.3 1019.6 535.3L944.5 549.8Z" fill="#7B6DCF"/>
<path d="M1004.8 606.8C1004.8 606.8 995.9 599.6 989.9 593.1C983.9 586.6 979.3 579.5 979.3 579.5C979.3 579.5 985.7 594.4 993.9 602.5C1001.5 610.1 1004.9 612 1004.9 612L1004.8 606.8Z" fill="#6A5AC1"/>
<path d="M997.3 630.4L989.1 623.1L999.5 623.5L997.3 630.4Z" fill="#FF6ED9"/>
<path d="M975.9 609.4L979.9 603L980.8 610.1L975.9 609.4Z" fill="#FF6ED9"/>
<path d="M997.1 699.5L994.3 692.4L1000.6 695.9L997.1 699.5Z" fill="#FF6ED9"/>
<path d="M1011.1 564.4L1012.9 572.3L1005.4 569.7L1011.1 564.4Z" fill="#FF6ED9"/>
<path d="M979.8 678.1L984.6 677.5L982.6 681.9L979.8 678.1Z" fill="#FF6ED9"/>
<path d="M1031.3 596.1L1036.2 595.4L1034.1 599.9L1031.3 596.1Z" fill="#FF6ED9"/>
<path d="M1051.2 604.3L1054.8 598.1L1058.4 603.8L1051.2 604.3Z" fill="#FF6ED9"/>
<path d="M1089.3 607.9L1094.3 603.2L1097.1 607.5L1089.3 607.9Z" fill="#FF6ED9"/>
<path d="M982.5 561L983.2 556.1L986.9 559.4L982.5 561Z" fill="#FF6ED9"/>
<path d="M967.7 640L975.8 648.2L964.8 650.7L967.7 640Z" fill="#FF6ED9"/>
<path d="M1013.2 590L1009.4 600.9L1002.3 592.1L1013.2 590Z" fill="#FF6ED9"/>
<path d="M1068.8 595.4L1078.1 604.1L1067.7 608.7L1068.8 595.4Z" fill="#FF6ED9"/>
<path d="M961.5 574L968.5 582.7L971 574H961.5Z" fill="#FF6ED9"/>
<path d="M1029.4 553.7C1029.2 553.2 1028.9 552.8 1028.7 552.3L1025.5 549.9L1026.1 567.1L1033.2 561.6C1032 559 1030.7 556.3 1029.4 553.7Z" fill="#FF6ED9"/>
<path d="M944.1 562.3C944.1 564.6 944.2 567.1 944.3 569.9L949 570.6L944.5 562L944.1 562.3Z" fill="#FF6ED9"/>
<path d="M1005.6 659.8C1005.6 656.6 1005.6 653.5 1005.5 650.6C1005.5 650 1005.5 649.4 1005.5 648.8L990.1 653.7L1005.6 659.8Z" fill="#FF6ED9"/>
<path d="M1046.1 612L1034.2 620.1L1043.3 625.4C1044.4 625.2 1045.5 625 1046.7 624.8C1047.6 624.6 1049 624.3 1050.6 624L1046.1 612Z" fill="#FF6ED9"/>
<path d="M950.6 613.6H961.2L951.6 593.8L948.7 605.7C949.4 608.3 950 610.9 950.6 613.6Z" fill="#FF6ED9"/>
<path d="M984.2 424.4C1000.33 424.4 1013.4 411.327 1013.4 395.2C1013.4 379.073 1000.33 366 984.2 366C968.073 366 955 379.073 955 395.2C955 411.327 968.073 424.4 984.2 424.4Z" fill="#8C503E"/>
<path d="M1100.5 611.8C1100.5 611.8 1103.1 622.2 1104.7 627.2C1106.3 632.1 1109.3 638.3 1111.7 638.4C1114.2 638.5 1114.8 629.3 1113.4 615.3C1112 601.3 1113.2 599.4 1105.1 599.5C1101.5 599.5 1099.6 599.3 1099.6 599.3L1100.5 611.8Z" fill="#4E3734"/>
<path d="M988.3 713.7C988.3 713.7 977.9 715.9 972.2 718.1C966.5 720.3 962.1 722.7 962.1 725.5C962.1 727.7 972.5 727 988.7 727C1005.3 727.1 1010 727.5 1007.1 719.1C1006.1 716.2 1003.6 713.6 1003.6 713.6H988.3V713.7Z" fill="#4E3734"/>
<path d="M930.1 356.6C930.1 356.6 927.7 349.5 928 345.6C928.3 341.7 929.5 335.7 929.7 332.5C929.9 329.3 929.7 322.8 932.5 322.6C935.3 322.4 937.4 326.5 937.3 330.9C937.2 335.3 942.3 345.4 940 350.6C937.7 355.8 936.6 358 936.6 358L930.1 356.6Z" fill="#8C503E"/>
<path d="M1101.1 439.2C1101.1 439.2 1108.2 436.8 1111.1 434.3C1114 431.8 1118.1 427.2 1120.6 425.1C1123.1 423 1128.4 419.2 1126.8 416.9C1125.2 414.6 1120.7 415.3 1117.2 418.1C1113.8 420.8 1102.6 422.8 1099.8 427.7C1097 432.6 1096 434.9 1096 434.9L1101.1 439.2Z" fill="#8C503E"/>
<path d="M924.3 354.8L940.8 358.6C940.8 358.6 939.2 398.8 940.5 404.3C942.3 411.5 972.3 435.3 972.3 435.3C972.3 435.3 1004.8 435.6 1015.3 439.6C1025.8 443.6 1036.8 450.9 1046.8 451.6C1056.8 452.3 1093.6 430.6 1093.6 430.6L1105.4 442.6C1105.4 442.6 1094.9 456.5 1087.6 463.4C1078.1 472.4 1062.6 484.9 1051.8 486.4C1041 487.9 1007.5 475.4 1007.5 475.4C1007.5 475.4 1015 501.4 1020.7 512.7C1026.5 524 1032 532.2 1032 532.2C1032 532.2 1006.1 547.7 984.2 552C962.3 556.3 937.5 552 937.5 552C937.5 552 930.7 533.7 936 504C941.3 474.3 945 467 945 467C945 467 918.7 431.3 914.5 416.7C910.3 402.1 924.3 354.8 924.3 354.8Z" fill="#FF6ED9"/>
<path d="M993.8 460.4C993.8 460.4 998.6 467.7 1002 470.7C1005.3 473.6 1007.6 475.4 1007.6 475.4L1012.7 491.8C1012.7 491.8 1003.4 484.9 999.9 478.1C996.2 471.2 993.8 460.4 993.8 460.4Z" fill="#FF5ED2"/>
<path d="M945 466.8C945 466.8 948.6 456.7 954.9 449.3C962.1 441 972.2 435.3 972.2 435.3L968.9 432.7C968.9 432.7 959.8 436.2 951.7 445.2C944.7 453 941.8 462.6 941.8 462.6L945 466.8Z" fill="#FF5ED2"/>
<path d="M1013.5 395.2C1013.5 379 1000.4 366 984.3 366C977.7 366 971.5 368.2 966.6 372C966.6 372 959.5 381.5 969.3 387.6C979.1 393.7 985.9 389.2 985.9 389.2C985.9 389.2 988.4 391.4 988.2 395.3C987.7 402.6 977.9 404.3 978.1 413.7C978.4 426.7 992.9 424.7 992.9 431.6C992.9 437.6 985.2 441.3 984.5 449.3C983.8 457.5 987.7 463.6 993.7 464.9C1013.3 469.2 1019.5 446.4 1020.5 440C1021.5 433.6 1019.1 421.2 1015.5 409.1C1014.4 405.2 1013.5 395.2 1013.5 395.2Z" fill="white"/>
<path d="M946.034 299.688L905.936 325.34L922.803 351.707L962.902 326.055L946.034 299.688Z" fill="#4F3D9D"/>
<path d="M942.1 298L945.7 299.6L958.8 325.7L923 350L903.3 354.8V323.6L942.1 298Z" fill="white"/>
<path d="M942.3 329.9L902.2 355.6L902.1 323.6L942.1 298L942.3 329.9Z" fill="#5441AF"/>
<path d="M942.1 298L945.9 299.8L946.1 300.4L942.1 298.9V298Z" fill="#4F3D9D"/>
<path d="M944.9 299.9L953.8 325.3L915.6 351.8L923 350L958.8 325.7L946.1 300.4L944.9 299.9Z" fill="#F7F7F7"/>
<path d="M935.5 348.3L936.2 341L939.1 339.1L939.9 342.1L935.5 348.3Z" fill="#8C503E"/>
<rect x="129.282" y="543.392" width="5" height="17" transform="rotate(136.798 129.282 543.392)" fill="#FFEFF0"/>
</g>
<path d="M774.06 293.68C770.98 293.68 768.46 292.64 766.5 290.56C764.58 288.44 763.62 285.62 763.62 282.1C763.62 278.58 764.58 275.78 766.5 273.7C768.46 271.58 770.98 270.52 774.06 270.52C777.14 270.52 779.64 271.58 781.56 273.7C783.48 275.78 784.44 278.58 784.44 282.1C784.44 285.62 783.48 288.44 781.56 290.56C779.64 292.64 777.14 293.68 774.06 293.68ZM799.08 271H806.22L777.54 313H770.4L799.08 271ZM774.06 288.76C775.42 288.76 776.48 288.2 777.24 287.08C778.04 285.96 778.44 284.3 778.44 282.1C778.44 279.9 778.04 278.24 777.24 277.12C776.48 276 775.42 275.44 774.06 275.44C772.74 275.44 771.68 276.02 770.88 277.18C770.08 278.3 769.68 279.94 769.68 282.1C769.68 284.26 770.08 285.92 770.88 287.08C771.68 288.2 772.74 288.76 774.06 288.76ZM802.56 313.48C800.56 313.48 798.76 313.02 797.16 312.1C795.6 311.14 794.38 309.78 793.5 308.02C792.62 306.26 792.18 304.22 792.18 301.9C792.18 299.58 792.62 297.54 793.5 295.78C794.38 294.02 795.6 292.68 797.16 291.76C798.76 290.8 800.56 290.32 802.56 290.32C805.64 290.32 808.14 291.38 810.06 293.5C812.02 295.58 813 298.38 813 301.9C813 305.42 812.02 308.24 810.06 310.36C808.14 312.44 805.64 313.48 802.56 313.48ZM802.56 308.56C803.92 308.56 804.98 308 805.74 306.88C806.54 305.72 806.94 304.06 806.94 301.9C806.94 299.74 806.54 298.1 805.74 296.98C804.98 295.82 803.92 295.24 802.56 295.24C801.24 295.24 800.18 295.8 799.38 296.92C798.58 298.04 798.18 299.7 798.18 301.9C798.18 304.1 798.58 305.76 799.38 306.88C800.18 308 801.24 308.56 802.56 308.56Z" fill="#534FD2"/>
<path d="M769.06 288.68C765.98 288.68 763.46 287.64 761.5 285.56C759.58 283.44 758.62 280.62 758.62 277.1C758.62 273.58 759.58 270.78 761.5 268.7C763.46 266.58 765.98 265.52 769.06 265.52C772.14 265.52 774.64 266.58 776.56 268.7C778.48 270.78 779.44 273.58 779.44 277.1C779.44 280.62 778.48 283.44 776.56 285.56C774.64 287.64 772.14 288.68 769.06 288.68ZM794.08 266H801.22L772.54 308H765.4L794.08 266ZM769.06 283.76C770.42 283.76 771.48 283.2 772.24 282.08C773.04 280.96 773.44 279.3 773.44 277.1C773.44 274.9 773.04 273.24 772.24 272.12C771.48 271 770.42 270.44 769.06 270.44C767.74 270.44 766.68 271.02 765.88 272.18C765.08 273.3 764.68 274.94 764.68 277.1C764.68 279.26 765.08 280.92 765.88 282.08C766.68 283.2 767.74 283.76 769.06 283.76ZM797.56 308.48C795.56 308.48 793.76 308.02 792.16 307.1C790.6 306.14 789.38 304.78 788.5 303.02C787.62 301.26 787.18 299.22 787.18 296.9C787.18 294.58 787.62 292.54 788.5 290.78C789.38 289.02 790.6 287.68 792.16 286.76C793.76 285.8 795.56 285.32 797.56 285.32C800.64 285.32 803.14 286.38 805.06 288.5C807.02 290.58 808 293.38 808 296.9C808 300.42 807.02 303.24 805.06 305.36C803.14 307.44 800.64 308.48 797.56 308.48ZM797.56 303.56C798.92 303.56 799.98 303 800.74 301.88C801.54 300.72 801.94 299.06 801.94 296.9C801.94 294.74 801.54 293.1 800.74 291.98C799.98 290.82 798.92 290.24 797.56 290.24C796.24 290.24 795.18 290.8 794.38 291.92C793.58 293.04 793.18 294.7 793.18 296.9C793.18 299.1 793.58 300.76 794.38 301.88C795.18 303 796.24 303.56 797.56 303.56Z" fill="white"/>
<path d="M583.438 235.554C591.203 235.554 598.423 237.253 605.096 240.65C611.769 244.047 617.108 248.84 621.112 255.028C625.116 261.216 627.118 268.314 627.118 276.322C627.118 285.179 624.813 293.005 620.202 299.8C615.713 306.595 609.525 311.812 601.638 315.452C593.751 319.092 585.015 320.912 575.43 320.912C563.175 320.912 552.437 318.546 543.216 313.814C534.116 309.082 527.018 302.045 521.922 292.702C516.826 283.359 514.278 271.893 514.278 258.304C514.278 243.744 517.19 231.125 523.014 220.448C528.959 209.771 537.21 201.641 547.766 196.06C558.443 190.479 570.819 187.688 584.894 187.688C592.538 187.688 599.818 188.598 606.734 190.418C613.65 192.117 619.535 194.543 624.388 197.698L608.918 227.728C602.609 223.239 594.904 220.994 585.804 220.994C578.403 220.994 572.275 222.875 567.422 226.636C562.69 230.276 559.596 235.615 558.14 242.652C564.813 237.92 573.246 235.554 583.438 235.554ZM572.518 291.246C576.401 291.246 579.555 290.093 581.982 287.788C584.409 285.483 585.622 282.328 585.622 278.324C585.622 274.32 584.409 271.165 581.982 268.86C579.555 266.433 576.401 265.22 572.518 265.22C568.635 265.22 565.481 266.433 563.054 268.86C560.627 271.165 559.414 274.32 559.414 278.324C559.414 282.328 560.627 285.483 563.054 287.788C565.481 290.093 568.635 291.246 572.518 291.246ZM692.298 320.912C681.014 320.912 671.004 318.303 662.268 313.086C653.654 307.747 646.859 300.103 641.884 290.154C637.031 280.083 634.604 268.132 634.604 254.3C634.604 240.468 637.031 228.577 641.884 218.628C646.859 208.557 653.654 200.913 662.268 195.696C671.004 190.357 681.014 187.688 692.298 187.688C703.582 187.688 713.532 190.357 722.146 195.696C730.882 200.913 737.677 208.557 742.53 218.628C747.505 228.577 749.992 240.468 749.992 254.3C749.992 268.132 747.505 280.083 742.53 290.154C737.677 300.103 730.882 307.747 722.146 313.086C713.532 318.303 703.582 320.912 692.298 320.912ZM692.298 286.514C702.005 286.514 706.858 275.776 706.858 254.3C706.858 232.824 702.005 222.086 692.298 222.086C682.592 222.086 677.738 232.824 677.738 254.3C677.738 275.776 682.592 286.514 692.298 286.514Z" fill="#534FD2"/>
<path d="M570.438 222.554C578.203 222.554 585.423 224.253 592.096 227.65C598.769 231.047 604.108 235.84 608.112 242.028C612.116 248.216 614.118 255.314 614.118 263.322C614.118 272.179 611.813 280.005 607.202 286.8C602.713 293.595 596.525 298.812 588.638 302.452C580.751 306.092 572.015 307.912 562.43 307.912C550.175 307.912 539.437 305.546 530.216 300.814C521.116 296.082 514.018 289.045 508.922 279.702C503.826 270.359 501.278 258.893 501.278 245.304C501.278 230.744 504.19 218.125 510.014 207.448C515.959 196.771 524.21 188.641 534.766 183.06C545.443 177.479 557.819 174.688 571.894 174.688C579.538 174.688 586.818 175.598 593.734 177.418C600.65 179.117 606.535 181.543 611.388 184.698L595.918 214.728C589.609 210.239 581.904 207.994 572.804 207.994C565.403 207.994 559.275 209.875 554.422 213.636C549.69 217.276 546.596 222.615 545.14 229.652C551.813 224.92 560.246 222.554 570.438 222.554ZM559.518 278.246C563.401 278.246 566.555 277.093 568.982 274.788C571.409 272.483 572.622 269.328 572.622 265.324C572.622 261.32 571.409 258.165 568.982 255.86C566.555 253.433 563.401 252.22 559.518 252.22C555.635 252.22 552.481 253.433 550.054 255.86C547.627 258.165 546.414 261.32 546.414 265.324C546.414 269.328 547.627 272.483 550.054 274.788C552.481 277.093 555.635 278.246 559.518 278.246ZM679.298 307.912C668.014 307.912 658.004 305.303 649.268 300.086C640.654 294.747 633.859 287.103 628.884 277.154C624.031 267.083 621.604 255.132 621.604 241.3C621.604 227.468 624.031 215.577 628.884 205.628C633.859 195.557 640.654 187.913 649.268 182.696C658.004 177.357 668.014 174.688 679.298 174.688C690.582 174.688 700.532 177.357 709.146 182.696C717.882 187.913 724.677 195.557 729.53 205.628C734.505 215.577 736.992 227.468 736.992 241.3C736.992 255.132 734.505 267.083 729.53 277.154C724.677 287.103 717.882 294.747 709.146 300.086C700.532 305.303 690.582 307.912 679.298 307.912ZM679.298 273.514C689.005 273.514 693.858 262.776 693.858 241.3C693.858 219.824 689.005 209.086 679.298 209.086C669.592 209.086 664.738 219.824 664.738 241.3C664.738 262.776 669.592 273.514 679.298 273.514Z" fill="white"/>
<path d="M448.84 187.72V220H439.96V216.16C438.72 217.56 437.24 218.64 435.52 219.4C433.8 220.12 431.94 220.48 429.94 220.48C425.7 220.48 422.34 219.26 419.86 216.82C417.38 214.38 416.14 210.76 416.14 205.96V187.72H425.5V204.58C425.5 209.78 427.68 212.38 432.04 212.38C434.28 212.38 436.08 211.66 437.44 210.22C438.8 208.74 439.48 206.56 439.48 203.68V187.72H448.84ZM476.591 187.24C479.591 187.24 482.311 187.94 484.751 189.34C487.231 190.7 489.171 192.64 490.571 195.16C491.971 197.64 492.671 200.54 492.671 203.86C492.671 207.18 491.971 210.1 490.571 212.62C489.171 215.1 487.231 217.04 484.751 218.44C482.311 219.8 479.591 220.48 476.591 220.48C472.471 220.48 469.231 219.18 466.871 216.58V231.64H457.511V187.72H466.451V191.44C468.771 188.64 472.151 187.24 476.591 187.24ZM474.971 212.8C477.371 212.8 479.331 212 480.851 210.4C482.411 208.76 483.191 206.58 483.191 203.86C483.191 201.14 482.411 198.98 480.851 197.38C479.331 195.74 477.371 194.92 474.971 194.92C472.571 194.92 470.591 195.74 469.031 197.38C467.511 198.98 466.751 201.14 466.751 203.86C466.751 206.58 467.511 208.76 469.031 210.4C470.591 212 472.571 212.8 474.971 212.8Z" fill="#534FD2"/>
<path d="M443.84 182.72V215H434.96V211.16C433.72 212.56 432.24 213.64 430.52 214.4C428.8 215.12 426.94 215.48 424.94 215.48C420.7 215.48 417.34 214.26 414.86 211.82C412.38 209.38 411.14 205.76 411.14 200.96V182.72H420.5V199.58C420.5 204.78 422.68 207.38 427.04 207.38C429.28 207.38 431.08 206.66 432.44 205.22C433.8 203.74 434.48 201.56 434.48 198.68V182.72H443.84ZM471.591 182.24C474.591 182.24 477.311 182.94 479.751 184.34C482.231 185.7 484.171 187.64 485.571 190.16C486.971 192.64 487.671 195.54 487.671 198.86C487.671 202.18 486.971 205.1 485.571 207.62C484.171 210.1 482.231 212.04 479.751 213.44C477.311 214.8 474.591 215.48 471.591 215.48C467.471 215.48 464.231 214.18 461.871 211.58V226.64H452.511V182.72H461.451V186.44C463.771 183.64 467.151 182.24 471.591 182.24ZM469.971 207.8C472.371 207.8 474.331 207 475.851 205.4C477.411 203.76 478.191 201.58 478.191 198.86C478.191 196.14 477.411 193.98 475.851 192.38C474.331 190.74 472.371 189.92 469.971 189.92C467.571 189.92 465.591 190.74 464.031 192.38C462.511 193.98 461.751 196.14 461.751 198.86C461.751 201.58 462.511 203.76 464.031 205.4C465.591 207 467.571 207.8 469.971 207.8Z" fill="white"/>
<path d="M511.984 136.9C512.951 137.217 513.718 137.75 514.284 138.5C514.851 139.233 515.134 140.15 515.134 141.25C515.134 142.767 514.551 143.942 513.384 144.775C512.218 145.592 510.518 146 508.284 146H499.584V128.5H507.784C509.851 128.5 511.443 128.908 512.559 129.725C513.676 130.525 514.234 131.633 514.234 133.05C514.234 133.917 514.034 134.683 513.634 135.35C513.234 136.017 512.684 136.533 511.984 136.9ZM502.834 131.05V135.875H507.434C508.568 135.875 509.434 135.675 510.034 135.275C510.651 134.858 510.959 134.258 510.959 133.475C510.959 132.675 510.651 132.075 510.034 131.675C509.434 131.258 508.568 131.05 507.434 131.05H502.834ZM508.084 143.45C510.601 143.45 511.859 142.608 511.859 140.925C511.859 139.242 510.601 138.4 508.084 138.4H502.834V143.45H508.084ZM518.603 128.5H521.853V146H518.603V128.5ZM538.536 137.05H541.611V144.025C540.711 144.742 539.661 145.292 538.461 145.675C537.261 146.058 536.028 146.25 534.761 146.25C532.978 146.25 531.37 145.867 529.936 145.1C528.503 144.317 527.378 143.242 526.561 141.875C525.745 140.508 525.336 138.967 525.336 137.25C525.336 135.533 525.745 133.992 526.561 132.625C527.378 131.258 528.503 130.192 529.936 129.425C531.386 128.642 533.011 128.25 534.811 128.25C536.278 128.25 537.611 128.492 538.811 128.975C540.011 129.458 541.02 130.167 541.836 131.1L539.786 133.1C538.453 131.767 536.845 131.1 534.961 131.1C533.728 131.1 532.628 131.358 531.661 131.875C530.711 132.392 529.961 133.117 529.411 134.05C528.878 134.983 528.611 136.05 528.611 137.25C528.611 138.417 528.878 139.467 529.411 140.4C529.961 141.333 530.711 142.067 531.661 142.6C532.628 143.133 533.72 143.4 534.936 143.4C536.303 143.4 537.503 143.1 538.536 142.5V137.05ZM558.232 146.25C556.882 146.25 555.574 146.058 554.307 145.675C553.057 145.292 552.065 144.783 551.332 144.15L552.457 141.625C553.174 142.192 554.049 142.658 555.082 143.025C556.132 143.375 557.182 143.55 558.232 143.55C559.532 143.55 560.499 143.342 561.132 142.925C561.782 142.508 562.107 141.958 562.107 141.275C562.107 140.775 561.924 140.367 561.557 140.05C561.207 139.717 560.757 139.458 560.207 139.275C559.657 139.092 558.907 138.883 557.957 138.65C556.624 138.333 555.54 138.017 554.707 137.7C553.89 137.383 553.182 136.892 552.582 136.225C551.999 135.542 551.707 134.625 551.707 133.475C551.707 132.508 551.965 131.633 552.482 130.85C553.015 130.05 553.807 129.417 554.857 128.95C555.924 128.483 557.224 128.25 558.757 128.25C559.824 128.25 560.874 128.383 561.907 128.65C562.94 128.917 563.832 129.3 564.582 129.8L563.557 132.325C562.79 131.875 561.99 131.533 561.157 131.3C560.324 131.067 559.515 130.95 558.732 130.95C557.449 130.95 556.49 131.167 555.857 131.6C555.24 132.033 554.932 132.608 554.932 133.325C554.932 133.825 555.107 134.233 555.457 134.55C555.824 134.867 556.282 135.117 556.832 135.3C557.382 135.483 558.132 135.692 559.082 135.925C560.382 136.225 561.449 136.542 562.282 136.875C563.115 137.192 563.824 137.683 564.407 138.35C565.007 139.017 565.307 139.917 565.307 141.05C565.307 142.017 565.04 142.892 564.507 143.675C563.99 144.458 563.199 145.083 562.132 145.55C561.065 146.017 559.765 146.25 558.232 146.25ZM576.055 146.25C573.638 146.25 571.755 145.575 570.405 144.225C569.055 142.858 568.38 140.908 568.38 138.375V128.5H571.63V138.25C571.63 141.683 573.113 143.4 576.08 143.4C579.03 143.4 580.505 141.683 580.505 138.25V128.5H583.705V138.375C583.705 140.908 583.03 142.858 581.68 144.225C580.346 145.575 578.471 146.25 576.055 146.25ZM604.331 146L604.306 134.4L598.556 144H597.106L591.356 134.55V146H588.256V128.5H590.931L597.881 140.1L604.706 128.5H607.381L607.406 146H604.331ZM628.208 146L628.183 134.4L622.433 144H620.983L615.233 134.55V146H612.133V128.5H614.808L621.758 140.1L628.583 128.5H631.258L631.283 146H628.208ZM649.135 143.275V146H636.01V128.5H648.785V131.225H639.26V135.775H647.71V138.45H639.26V143.275H649.135ZM664.208 146L660.633 140.875C660.483 140.892 660.258 140.9 659.958 140.9H656.008V146H652.758V128.5H659.958C661.475 128.5 662.792 128.75 663.908 129.25C665.042 129.75 665.908 130.467 666.508 131.4C667.108 132.333 667.408 133.442 667.408 134.725C667.408 136.042 667.083 137.175 666.433 138.125C665.8 139.075 664.883 139.783 663.683 140.25L667.708 146H664.208ZM664.133 134.725C664.133 133.608 663.767 132.75 663.033 132.15C662.3 131.55 661.225 131.25 659.808 131.25H656.008V138.225H659.808C661.225 138.225 662.3 137.925 663.033 137.325C663.767 136.708 664.133 135.842 664.133 134.725ZM683.379 146.25C682.029 146.25 680.72 146.058 679.454 145.675C678.204 145.292 677.212 144.783 676.479 144.15L677.604 141.625C678.32 142.192 679.195 142.658 680.229 143.025C681.279 143.375 682.329 143.55 683.379 143.55C684.679 143.55 685.645 143.342 686.279 142.925C686.929 142.508 687.254 141.958 687.254 141.275C687.254 140.775 687.07 140.367 686.704 140.05C686.354 139.717 685.904 139.458 685.354 139.275C684.804 139.092 684.054 138.883 683.104 138.65C681.77 138.333 680.687 138.017 679.854 137.7C679.037 137.383 678.329 136.892 677.729 136.225C677.145 135.542 676.854 134.625 676.854 133.475C676.854 132.508 677.112 131.633 677.629 130.85C678.162 130.05 678.954 129.417 680.004 128.95C681.07 128.483 682.37 128.25 683.904 128.25C684.97 128.25 686.02 128.383 687.054 128.65C688.087 128.917 688.979 129.3 689.729 129.8L688.704 132.325C687.937 131.875 687.137 131.533 686.304 131.3C685.47 131.067 684.662 130.95 683.879 130.95C682.595 130.95 681.637 131.167 681.004 131.6C680.387 132.033 680.079 132.608 680.079 133.325C680.079 133.825 680.254 134.233 680.604 134.55C680.97 134.867 681.429 135.117 681.979 135.3C682.529 135.483 683.279 135.692 684.229 135.925C685.529 136.225 686.595 136.542 687.429 136.875C688.262 137.192 688.97 137.683 689.554 138.35C690.154 139.017 690.454 139.917 690.454 141.05C690.454 142.017 690.187 142.892 689.654 143.675C689.137 144.458 688.345 145.083 687.279 145.55C686.212 146.017 684.912 146.25 683.379 146.25ZM705.026 141.95H696.276L694.551 146H691.201L699.076 128.5H702.276L710.176 146H706.776L705.026 141.95ZM703.951 139.4L700.651 131.75L697.376 139.4H703.951ZM712.402 128.5H715.652V143.25H724.802V146H712.402V128.5ZM740.493 143.275V146H727.368V128.5H740.143V131.225H730.618V135.775H739.068V138.45H730.618V143.275H740.493Z" fill="#1C2A39"/>
<defs>
<filter id="filter0_d" x="0" y="0" width="1238" height="820" filterUnits="userSpaceOnUse" color-interpolation-filters="sRGB">
<feFlood flood-opacity="0" result="BackgroundImageFix"/>
<feColorMatrix in="SourceAlpha" type="matrix" values="0 0 0 0 0 0 0 0 0 0 0 0 0 0 0 0 0 0 127 0"/>
<feOffset dy="6"/>
<feGaussianBlur stdDeviation="29.5"/>
<feColorMatrix type="matrix" values="0 0 0 0 0.208402 0 0 0 0 0.190642 0 0 0 0 0.329167 0 0 0 0.08 0"/>
<feBlend mode="normal" in2="BackgroundImageFix" result="effect1_dropShadow"/>
<feBlend mode="normal" in="SourceGraphic" in2="effect1_dropShadow" result="shape"/>
</filter>
<clipPath id="clip0">
<rect width="1016.1" height="429.1" fill="white" transform="translate(111 298)"/>
</clipPath>
</defs>
</svg>
